<?xml version="1.0" encoding="UTF-8" standalone="no"?>
<!-- Created with Inkscape (http://www.inkscape.org/) -->

<svg
   xmlns:dc="http://purl.org/dc/elements/1.1/"
   xmlns:cc="http://creativecommons.org/ns#"
   xmlns:rdf="http://www.w3.org/1999/02/22-rdf-syntax-ns#"
   xmlns:svg="http://www.w3.org/2000/svg"
   xmlns="http://www.w3.org/2000/svg"
   xmlns:sodipodi="http://sodipodi.sourceforge.net/DTD/sodipodi-0.dtd"
   xmlns:inkscape="http://www.inkscape.org/namespaces/inkscape"
   width="210mm"
   height="297mm"
   viewBox="0 0 210 297"
   version="1.1"
   id="svg903"
   inkscape:version="0.92.5 (2060ec1f9f, 2020-04-08)"
   sodipodi:docname="eslabon_1.svg">
  <defs
     id="defs897" />
  <sodipodi:namedview
     id="base"
     pagecolor="#ffffff"
     bordercolor="#666666"
     borderopacity="1.0"
     inkscape:pageopacity="0.0"
     inkscape:pageshadow="2"
     inkscape:zoom="0.98994949"
     inkscape:cx="363.86052"
     inkscape:cy="679.43239"
     inkscape:document-units="mm"
     inkscape:current-layer="layer1"
     showgrid="false"
     inkscape:snap-intersection-paths="true"
     showguides="true"
     inkscape:guide-bbox="true"
     inkscape:snap-midpoints="true"
     inkscape:snap-object-midpoints="true"
     inkscape:snap-bbox="true"
     inkscape:bbox-paths="true"
     inkscape:window-width="1848"
     inkscape:window-height="1016"
     inkscape:window-x="72"
     inkscape:window-y="27"
     inkscape:window-maximized="1" />
  <metadata
     id="metadata900">
    <rdf:RDF>
      <cc:Work
         rdf:about="">
        <dc:format>image/svg+xml</dc:format>
        <dc:type
           rdf:resource="http://purl.org/dc/dcmitype/StillImage" />
        <dc:title></dc:title>
      </cc:Work>
    </rdf:RDF>
  </metadata>
  <g
     inkscape:label="Layer 1"
     inkscape:groupmode="layer"
     id="layer1">
    <path
       style="opacity:0.94654086;fill:#04fffe;fill-opacity:1;stroke:#010001;stroke-width:3;stroke-linejoin:round;stroke-miterlimit:4;stroke-dasharray:none;stroke-dashoffset:0;stroke-opacity:1"
       d="M 175.76562 383.08789 A 114.14724 114.14724 0 0 0 61.619141 497.23438 A 114.14724 114.14724 0 0 0 175.76562 611.38281 A 114.14724 114.14724 0 0 0 176.89453 611.32617 C 177.01904 611.35906 177.14612 611.38281 177.28125 611.38281 L 636.90039 611.38281 C 637.01749 611.38281 637.13089 611.36671 637.24023 611.3418 A 114.14724 114.14724 0 0 0 638.41602 611.38281 A 114.14724 114.14724 0 0 0 752.56445 497.23438 A 114.14724 114.14724 0 0 0 638.41602 383.08789 A 114.14724 114.14724 0 0 0 637.28906 383.14453 C 637.16455 383.11165 637.03552 383.08789 636.90039 383.08789 L 177.28125 383.08789 C 177.16415 383.08789 177.0527 383.104 176.94336 383.12891 A 114.14724 114.14724 0 0 0 175.76562 383.08789 z "
       transform="scale(0.26458333)"
       id="path1448" />
    <ellipse
       style="opacity:0.94654086;fill:#fffffe;fill-opacity:1;stroke:#010001;stroke-width:0.79374999;stroke-linejoin:round;stroke-miterlimit:4;stroke-dasharray:none;stroke-dashoffset:0;stroke-opacity:1"
       id="path1532"
       cx="46.504898"
       cy="131.56017"
       rx="9.7553377"
       ry="8.8198938" />
    <ellipse
       style="opacity:0.94654086;fill:#fffffe;fill-opacity:1;stroke:#010001;stroke-width:0.79374999;stroke-linejoin:round;stroke-miterlimit:4;stroke-dasharray:none;stroke-dashoffset:0;stroke-opacity:1"
       id="path1532-7"
       cx="169.31111"
       cy="131.56017"
       rx="9.7553377"
       ry="8.8198938" />
  </g>
</svg>
